<?xml version="1.0" encoding="utf-8"?>
<!-- Generator: Adobe Illustrator 17.0.0, SVG Export Plug-In . SVG Version: 6.00 Build 0)  -->
<!DOCTYPE svg PUBLIC "-//W3C//DTD SVG 1.1//EN" "http://www.w3.org/Graphics/SVG/1.1/DTD/svg11.dtd">
<svg version="1.1" id="Layer_1" xmlns="http://www.w3.org/2000/svg" xmlns:xlink="http://www.w3.org/1999/xlink" x="0px" y="0px"
	 width="2662px" height="376px" viewBox="0 0 2662 376" enable-background="new 0 0 2662 376" xml:space="preserve">
<path fill="#3A3A3A" d="M490.57,35.47c21.49-7.59,44.81-8.2,67.24-5.55c21.08,2.83,41.35,9.85,60.82,18.2
	c-6.07,15.39-12.61,30.61-19,45.87c-2.54-0.56-4.99-1.43-7.38-2.44c-19.49-7.82-40.09-14.24-61.32-13.71
	c-8.24,0.51-16.89,2.26-23.34,7.75c-8.84,7.37-11.39,20.63-7.2,31.13c2.94,7.16,9.25,12.22,15.61,16.27
	c19.06,11.45,40.02,19.32,58.99,30.93c12.13,7.47,24.05,16.06,32.33,27.84c8.2,11.73,12.27,26.02,12.61,40.26
	c0.55,13.23-1.37,26.83-7.12,38.89c-6.83,14.62-19.2,26.14-33.3,33.7c-15.79,8.4-33.7,12-51.44,13.03
	c-24.44,1.29-49.29-1.15-72.55-9.01c-6.41-2.31-12.96-4.5-18.83-8.04c0.11-18.21-0.01-36.43,0.06-54.64
	c4.12,1.01,7.86,3.05,11.77,4.63c18.98,7.94,38.63,14.94,59.17,17.34c13.96,1.38,29.19,1.76,41.7-5.59
	c13.56-7.76,16.23-28.35,6.29-40c-4.19-5.18-9.64-9.18-15.29-12.62c-14.8-8.64-30.52-15.51-45.7-23.42
	c-11.38-6.14-22.61-12.98-31.68-22.3c-13.62-13.71-22.71-32.44-22.62-51.98c-0.66-13.99,1.52-28.32,7.95-40.87
	C456.87,54.17,472.86,41.75,490.57,35.47z"/>
<path fill="#3A3A3A" d="M2071.42,40.51c20.16-9.17,42.58-12.54,64.6-11.96c23.55,0.61,47.33,5.03,68.64,15.36
	c-2.42,5.97-5.12,11.82-7.79,17.67c-19.55-9.48-41.06-15.31-62.87-15.27c-20.18-0.37-40.79,3.35-58.63,13.08
	c-16.42,8.85-30,22.62-39.16,38.82c-9.78,17.1-14.73,36.59-16.55,56.09c-1.68,19.52-0.93,39.32,2.86,58.56
	c3.85,19.29,11.55,38.15,24.32,53.3c12.23,14.94,29.67,25.15,48.29,29.87c21.78,5.64,44.6,4.65,66.74,1.96
	c10.93-1.35,21.63-4.01,32.29-6.77c0.13,5.62,0,11.25,0.1,16.87c-20.17,7.39-41.91,9.24-63.24,9.8
	c-22.89,0.75-46.37-2.6-66.97-13.01c-26.62-13.22-46.52-37.89-56.3-65.71c-8.78-24.33-11.08-50.52-10.22-76.23
	c1.32-32.59,11.12-65.79,32.38-91.05C2041.05,58.39,2055.54,47.78,2071.42,40.51z"/>
<path fill="#3A3A3A" d="M2546.93,29.02c29.21-2.13,59,2.93,85.84,14.71c-1.84,5.83-4.55,11.34-6.82,17.01
	c-11.21-4.12-22.43-8.36-34.15-10.79c-17.48-3.8-35.75-5.11-53.41-1.87c-14.95,2.77-29.63,10.12-38.7,22.64
	c-5.46,7.59-8.29,16.91-8.54,26.22c-0.33,9.62,0.8,19.66,5.58,28.19c5.18,9.03,13.73,15.6,22.76,20.51
	c23.75,12.67,50.29,18.71,74.43,30.52c13.34,6.4,26.25,14.7,35.21,26.7c8.33,11.17,11.44,25.43,11.29,39.15
	c0.05,16.84-5.22,34.11-16.69,46.71c-15.11,16.92-37.42,25.78-59.61,28.24c-15.95,1.74-32.05,0.97-48.02-0.06
	c-16.7-1.45-33.59-3.8-49.2-10.15c-0.3-6.44-0.19-12.89-0.07-19.33c25.13,9.88,52.35,12.78,79.17,12.77
	c17.97-0.39,36.7-3.88,51.47-14.74c11.57-8.11,19.78-21.01,21.52-35.12c1.67-13.41-0.33-28.32-9.5-38.83
	c-11.27-12.86-27.43-19.75-42.91-26.07c-24.4-9.49-50.39-16.48-71.68-32.34c-11.19-8.14-19.32-20.32-22.41-33.82
	c-4.37-18.8-2.59-39.94,8.74-56.06C2495.96,41.98,2521.68,30.73,2546.93,29.02z"/>
<path fill="#3A3A3A" d="M643.17,32.46c70.73,0.08,141.47-0.1,212.2,0.09c0.01,16.36-0.01,32.71,0.01,49.06
	c-25.44,0.31-50.89-0.03-76.33,0.17c-0.43,77.39-0.06,154.8-0.19,232.19c-19.82,0.03-39.65,0.08-59.47-0.03
	c0-77.38,0.08-154.77-0.04-232.16c-25.4-0.13-50.8,0-76.19-0.06C643.09,65.3,643.08,48.88,643.17,32.46z"/>
<path fill="#3A3A3A" d="M897.87,32.46c53.87,0.05,107.75-0.04,161.62,0.04c0.04,16.4,0.01,32.79,0.01,49.18
	c-34.03,0.21-68.06-0.18-102.09,0.19c-0.01,20.27-0.01,40.54,0,60.81c31.64,0.12,63.27-0.05,94.91,0.09c0.09,16.4,0.08,32.8,0,49.2
	c-31.64,0.17-63.29-0.07-94.93,0.12c0.03,24.21,0,48.43,0.02,72.64c34.03,0.2,68.08-0.19,102.11,0.19
	c-0.01,16.34-0.03,32.68,0.01,49.01c-53.93,0.14-107.85,0.05-161.78,0.05c-0.09-56.32-0.01-112.65-0.04-168.98
	C897.82,107.49,897.5,69.97,897.87,32.46z"/>
<path fill="#3A3A3A" d="M1118.14,32.46c27.03,0.1,54.06-0.14,81.09,0.12c19.31,63.02,38.78,126,58.31,188.95
	c2.92,8.78,5.05,17.84,8.51,26.43c1.42-2.51,2.37-5.24,3.19-7.99c22.28-69.2,45.56-138.07,67.68-207.31
	c27.06-0.44,54.14-0.05,81.21-0.2c0.35,49.84,0.05,99.7,0.15,149.54c-0.03,44,0.05,87.99-0.04,131.98c-18.5,0.03-36.99,0.03-55.49,0
	c-0.09-29.32-0.01-58.65-0.04-87.98c0.1-21.66-0.23-43.33,0.24-64.99c0.49-17.68,1.28-35.34,2.03-53.01
	c0.16-4.97,0.67-9.95,0.3-14.93c-1.21,0.93-2.06,2.16-2.44,3.63c-23.79,72.37-47.41,144.8-71.25,217.16
	c-18.23,0.31-36.47,0.08-54.71,0.11c-22.66-73.34-44.68-146.88-67.53-220.16c-0.43-0.2-1.3-0.59-1.73-0.78
	c1.34,27.31,2.81,54.63,3.59,81.97c0.09,46.33,0.06,92.66,0.01,138.98c-17.76,0-35.51,0.1-53.27-0.05
	c-0.13-87.98-0.02-175.95-0.05-263.93C1117.95,44.15,1117.7,38.3,1118.14,32.46z"/>
<path fill="#3A3A3A" d="M1494.34,32.48c6.41-0.03,12.82,0,19.24-0.02c0.18,41.64-0.01,83.29,0.09,124.93
	c54.66,0.21,109.31,0.04,163.97,0.09c0.12-41.65-0.04-83.29,0.08-124.93c6.58-0.14,13.17-0.1,19.77-0.03
	c0.07,93.83,0.08,187.66-0.01,281.49c-6.59,0.01-13.18,0.08-19.76-0.06c-0.1-46.22,0-92.44-0.05-138.66
	c-54.68,0-109.36-0.17-164.03,0.09c-0.02,46.21,0.09,92.42-0.05,138.63c-6.44,0.01-12.87,0.09-19.29-0.06
	C1494.34,220.13,1494.24,126.31,1494.34,32.48z"/>
<path fill="#3A3A3A" d="M2257.34,32.48c6.42-0.03,12.85,0.01,19.29-0.03c0.23,48.57-0.05,97.14,0.14,145.71
	c5.61-4.11,10.01-9.59,15.02-14.37c23.43-23.26,45.85-47.49,68.74-71.26c19.24-19.91,38.18-40.12,57.44-60.01
	c8.21-0.03,16.44-0.2,24.65,0.1c-7.04,8.25-15.12,15.56-22.47,23.53c-30.6,31.77-61.33,63.41-91.96,95.13
	c9.29,13.75,19.41,26.95,29.06,40.46c29.63,40.7,59.24,81.42,88.79,122.18c-8,0.21-15.99,0.08-23.97,0.08
	c-26.62-36.45-52.96-73.12-79.54-109.6c-9.49-12.89-18.5-26.16-28.33-38.78c-10.36,8.82-20.38,18.03-30.64,26.95
	c-2.22,2.06-4.67,3.9-6.57,6.25c-0.67,4.01-0.13,8.12-0.28,12.18c-0.04,34.34,0.09,68.67-0.06,103.01
	c-6.46,0.01-12.92,0.08-19.36-0.05C2257.34,220.13,2257.24,126.31,2257.34,32.48z"/>
<path fill="#3A3A3A" d="M1910.34,154.51c-16.04-40.97-32.26-81.88-48.16-122.9c-4.2-0.2-8.4-0.17-12.59-0.06
	c-22.77,56.33-45.14,112.82-67.7,169.22c-15.06,37.71-30.46,75.29-45.05,113.18c7.21,0.06,14.44,0.27,21.66-0.12
	c5.8-15.19,11.92-30.27,17.86-45.41c7.24-17.9,13.99-36,21.43-53.81c37.81-0.03,75.61,0.09,113.41-0.06
	c2.23,3.79,3.47,8.04,5.13,12.09c11.27,29.11,22.77,58.13,34.08,87.23c7.43,0.31,14.87,0.15,22.31,0.09
	C1951.99,260.79,1930.97,207.72,1910.34,154.51z M1804.92,196.75c7.58-20.81,16-41.31,23.96-61.98
	c9.09-23.81,19.38-47.22,26.56-71.71c6.79,21.48,15.14,42.4,23.01,63.5c8.81,23.42,17.82,46.77,26.53,70.23
	C1871.63,196.87,1838.27,196.96,1804.92,196.75z"/>
<path fill="#3A3A3A" d="M1.66,169.47c3.85-10.01,16.65-17.39,26.82-12.14c7.45,4.67,13.32,11.5,20.86,16.06
	c2.56,1.54,5.49,2.47,7.84,4.34c3.49,9.01,5.93,18.41,8.84,27.62c0.87,2.65,1.57,5.37,1.82,8.17c-18.41,1.36-37.55-3.77-52.05-15.39
	c-5.24-4.09-9.43-9.4-12.78-15.11C0.48,179.02,0.65,173.92,1.66,169.47z"/>
<path fill="#3A3A3A" d="M350.24,251.73c-13.26-9.74-26.54-19.46-39.79-29.22c-1.07-0.82-2.47-1.7-3.8-0.85
	c-3.94,1.95-7.75,4.19-11.53,6.45c-2.23,1.11-2.56,3.75-3.17,5.9c-1.46,6.04-3.42,12.01-6.51,17.43
	c-3.69,6.69-9.51,12.03-16.02,15.93c-7.34,4.13-15.59,6.29-23.74,8.17c2.1-2.98,5.56-4.41,8.39-6.53
	c10.47-7.45,20.52-17.23,23.55-30.17c1.66-5.91,0.19-12.02-1.25-17.81c-5.55-23.12-13.84-45.45-20.15-68.35
	c-1.24-4.36-2.54-8.73-3.07-13.24c5.8,0.08,11.65-0.47,17.41,0.36c11.26,2.45,16.44,14.75,27.09,18.39
	c6.08,1.34,12.8,0.3,17.67-3.78c6.21-4.86,9.29-13.84,6.36-21.3c-8.36-16.29-25.4-26.54-42.89-30.32
	c-12.48-2.48-25.53-1.9-37.77,1.55c-7.31-25.41-14.83-50.76-23.06-75.89c-1.16-3.74-2.27-7.57-4.36-10.92
	c-5.04-8.11-13.52-13.86-22.74-16.08c-7.94-0.73-16.2-1.08-23.85,1.57c-34.5,9.19-68.95,18.57-103.35,28.14
	C50.93,34.73,40.8,46.02,38.52,59.02c-0.47,5.14-0.72,10.48,0.72,15.49c17.73,54.6,32.29,110.21,51.18,164.43
	c0.88,2.86,2.54,5.68,2.29,8.76c-1.93,2.7-4.51,4.85-6.64,7.39c-13.55,16.11-20.52,36.65-23.66,57.21
	c-12.08,4.29-25.32,10.62-30.61,23.11c20.32,4.14,40.92,6.79,61.37,10.22c2.21-4.12,3.31-8.7,5.25-12.94
	c3.76-8.71,8.76-17.02,15.56-23.72c9.79-10.27,23.9-16.05,37.99-16.57c24.24-1.35,46.55,10.39,70.36,12.63
	c13.1,0.98,26.5,0.91,39.22-2.79c20.38-5.5,38.47-18.22,51.26-34.93c15.29,1.26,31.19-1.44,44.37-9.55
	C355.62,255,352.63,253.63,350.24,251.73z M192.02,264.57c-6.74,0.8-13.64-5.68-12.7-12.54c-0.19-3.91,2.82-7.1,6.03-8.86
	c7.07-3.37,16.74,1.08,17.97,9.03C204.6,258.77,198.34,264.66,192.02,264.57z M237.35,199.61c-1.38,6.29-6.14,11.76-12.34,13.68
	c-18.54,6.29-37.68,10.56-56.52,15.84c-8.92,2.4-17.73,5.23-26.76,7.2c-5.69,0.56-11.92,1.03-16.97-2.18
	c-6.66-3.59-9.86-10.93-11.95-17.83c-13.1-43.3-26.22-86.58-39.56-129.81c-2.11-7.25-4.67-15.61-0.49-22.63
	c4.13-7.66,13.21-9.85,20.91-12.1c18.1-4.84,36.15-9.88,54.25-14.74c5.94-1.38,11.57-3.89,17.59-4.93
	c8.26-1.49,17.82,0.28,23.65,6.71c3.38,3.62,4.37,8.63,5.9,13.18c14,44.03,27.1,88.33,40.69,132.49
	C237.67,189.27,238.27,194.53,237.35,199.61z"/>
</svg>
