<?xml version="1.0" encoding="utf-8"?>
<!-- Generator: Adobe Illustrator 18.0.0, SVG Export Plug-In . SVG Version: 6.00 Build 0)  -->
<!DOCTYPE svg PUBLIC "-//W3C//DTD SVG 1.1//EN" "http://www.w3.org/Graphics/SVG/1.1/DTD/svg11.dtd">
<svg version="1.1" id="Layer_1" xmlns="http://www.w3.org/2000/svg" xmlns:xlink="http://www.w3.org/1999/xlink" x="0px" y="0px"
	 viewBox="0 0 368 361" enable-background="new 0 0 368 361" xml:space="preserve">
<path fill="#3A3B3B" d="M6.7,175.5c3.9-10,16.6-17.4,26.8-12.1c7.5,4.7,13.3,11.5,20.9,16.1c2.6,1.5,5.5,2.5,7.8,4.3
	c3.5,9,5.9,18.4,8.8,27.6c0.9,2.6,1.6,5.4,1.8,8.2c-18.4,1.4-37.5-3.8-52-15.4C15.6,200,11.4,194.7,8,189
	C5.5,185,5.7,179.9,6.7,175.5z"/>
<path fill="#3A3B3B" d="M355.2,257.7c-13.3-9.7-26.5-19.5-39.8-29.2c-1.1-0.8-2.5-1.7-3.8-0.9c-3.9,1.9-7.8,4.2-11.5,6.4
	c-2.2,1.1-2.6,3.8-3.2,5.9c-1.5,6-3.4,12-6.5,17.4c-3.7,6.7-9.5,12-16,15.9c-7.3,4.1-15.6,6.3-23.7,8.2c2.1-3,5.6-4.4,8.4-6.5
	c10.5-7.5,20.5-17.2,23.5-30.2c1.7-5.9,0.2-12-1.3-17.8c-5.5-23.1-13.8-45.4-20.1-68.3c-1.2-4.4-2.5-8.7-3.1-13.2
	c5.8,0.1,11.6-0.5,17.4,0.4c11.3,2.4,16.4,14.8,27.1,18.4c6.1,1.3,12.8,0.3,17.7-3.8c6.2-4.9,9.3-13.8,6.4-21.3
	c-8.4-16.3-25.4-26.5-42.9-30.3c-12.5-2.5-25.5-1.9-37.8,1.6c-7.3-25.4-14.8-50.8-23.1-75.9c-1.2-3.7-2.3-7.6-4.4-10.9
	c-5-8.1-13.5-13.9-22.7-16.1C187.9,6.7,179.7,6.4,172,9c-34.5,9.2-68.9,18.6-103.3,28.1C55.9,40.7,45.8,52,43.5,65
	c-0.5,5.1-0.7,10.5,0.7,15.5C62,135.1,76.5,190.7,95.4,244.9c0.9,2.9,2.5,5.7,2.3,8.8c-1.9,2.7-4.5,4.9-6.6,7.4
	c-13.6,16.1-20.5,36.6-23.7,57.2c-12.1,4.3-25.3,10.6-30.6,23.1c20.3,4.1,40.9,6.8,61.4,10.2c2.2-4.1,3.3-8.7,5.3-12.9
	c3.8-8.7,8.8-17,15.6-23.7c9.8-10.3,23.9-16,38-16.6c24.2-1.4,46.6,10.4,70.4,12.6c13.1,1,26.5,0.9,39.2-2.8
	c20.4-5.5,38.5-18.2,51.3-34.9c15.3,1.3,31.2-1.4,44.4-9.5C360.6,261,357.6,259.6,355.2,257.7z M197,270.6
	c-6.7,0.8-13.6-5.7-12.7-12.5c-0.2-3.9,2.8-7.1,6-8.9c7.1-3.4,16.7,1.1,18,9C209.6,264.8,203.3,270.7,197,270.6z M242.4,205.6
	c-1.4,6.3-6.1,11.8-12.3,13.7c-18.5,6.3-37.7,10.6-56.5,15.8c-8.9,2.4-17.7,5.2-26.8,7.2c-5.7,0.6-11.9,1-17-2.2
	c-6.7-3.6-9.9-10.9-11.9-17.8C104.7,179,91.6,135.7,78.3,92.5c-2.1-7.3-4.7-15.6-0.5-22.6C81.9,62.2,91,60,98.7,57.8
	c18.1-4.8,36.1-9.9,54.3-14.7c5.9-1.4,11.6-3.9,17.6-4.9c8.3-1.5,17.8,0.3,23.6,6.7c3.4,3.6,4.4,8.6,5.9,13.2
	c14,44,27.1,88.3,40.7,132.5C242.7,195.3,243.3,200.5,242.4,205.6z"/>
</svg>
